<mxfile host="app.diagrams.net" agent="Mozilla/5.0 (Windows NT 10.0; Win64; x64) AppleWebKit/537.36 (KHTML, like Gecko) Chrome/136.0.0.0 Safari/537.36" version="26.2.14">
  <diagram name="Page-1" id="e7e014a7-5840-1c2e-5031-d8a46d1fe8dd">
    <mxGraphModel dx="1678" dy="1700" grid="1" gridSize="10" guides="1" tooltips="1" connect="1" arrows="1" fold="1" page="1" pageScale="1" pageWidth="1169" pageHeight="826" background="none" math="0" shadow="0">
      <root>
        <mxCell id="0" />
        <mxCell id="1" parent="0" />
        <mxCell id="2" value="Малярка" style="swimlane;whiteSpace=wrap" parent="1" vertex="1">
          <mxGeometry x="100" y="128" width="280" height="570" as="geometry" />
        </mxCell>
        <mxCell id="7" value="викраска форми" style="" parent="2" vertex="1">
          <mxGeometry x="150" y="42" width="110" height="30" as="geometry" />
        </mxCell>
        <mxCell id="ZFgXIYBRlFsBKdHk3r_l-41" value="викраска форми" style="" vertex="1" parent="2">
          <mxGeometry x="150" y="82" width="110" height="30" as="geometry" />
        </mxCell>
        <mxCell id="ZFgXIYBRlFsBKdHk3r_l-42" value="викраска форми" style="" vertex="1" parent="2">
          <mxGeometry x="150" y="122" width="110" height="30" as="geometry" />
        </mxCell>
        <mxCell id="ZFgXIYBRlFsBKdHk3r_l-43" value="викраска форми" style="" vertex="1" parent="2">
          <mxGeometry x="150" y="202" width="110" height="30" as="geometry" />
        </mxCell>
        <mxCell id="ZFgXIYBRlFsBKdHk3r_l-44" value="викраска форми" style="" vertex="1" parent="2">
          <mxGeometry x="150" y="162" width="110" height="30" as="geometry" />
        </mxCell>
        <mxCell id="4" value="Складання" style="swimlane;whiteSpace=wrap" parent="1" vertex="1">
          <mxGeometry x="710" y="130" width="280" height="570" as="geometry" />
        </mxCell>
        <mxCell id="b3la3fIPvDPqnJ_Hfxcg-51" value="Агрегатне складання" style="swimlane;whiteSpace=wrap" parent="1" vertex="1">
          <mxGeometry x="1040" y="128" width="280" height="570" as="geometry" />
        </mxCell>
        <mxCell id="b3la3fIPvDPqnJ_Hfxcg-57" value="Електромонтажна дільниця" style="swimlane;whiteSpace=wrap" parent="1" vertex="1">
          <mxGeometry x="1360" y="128" width="280" height="570" as="geometry" />
        </mxCell>
        <mxCell id="ZFgXIYBRlFsBKdHk3r_l-45" value="Формовка" style="swimlane;whiteSpace=wrap" vertex="1" parent="1">
          <mxGeometry x="410" y="130" width="280" height="570" as="geometry" />
        </mxCell>
        <mxCell id="ZFgXIYBRlFsBKdHk3r_l-46" value="01160.00063" style="" vertex="1" parent="ZFgXIYBRlFsBKdHk3r_l-45">
          <mxGeometry x="30" y="40" width="110" height="30" as="geometry" />
        </mxCell>
        <mxCell id="ZFgXIYBRlFsBKdHk3r_l-47" value="01160.00064" style="" vertex="1" parent="ZFgXIYBRlFsBKdHk3r_l-45">
          <mxGeometry x="30" y="80" width="110" height="30" as="geometry" />
        </mxCell>
        <mxCell id="ZFgXIYBRlFsBKdHk3r_l-48" value="01160.00065" style="" vertex="1" parent="ZFgXIYBRlFsBKdHk3r_l-45">
          <mxGeometry x="30" y="120" width="110" height="30" as="geometry" />
        </mxCell>
        <mxCell id="ZFgXIYBRlFsBKdHk3r_l-49" value="01160.00067" style="" vertex="1" parent="ZFgXIYBRlFsBKdHk3r_l-45">
          <mxGeometry x="30" y="200" width="110" height="30" as="geometry" />
        </mxCell>
        <mxCell id="ZFgXIYBRlFsBKdHk3r_l-50" value="01160.00066" style="" vertex="1" parent="ZFgXIYBRlFsBKdHk3r_l-45">
          <mxGeometry x="30" y="160" width="110" height="30" as="geometry" />
        </mxCell>
        <mxCell id="ZFgXIYBRlFsBKdHk3r_l-55" value="" style="endArrow=classic;html=1;rounded=0;exitX=1;exitY=0.5;exitDx=0;exitDy=0;entryX=0;entryY=0.5;entryDx=0;entryDy=0;" edge="1" parent="ZFgXIYBRlFsBKdHk3r_l-45">
          <mxGeometry width="50" height="50" relative="1" as="geometry">
            <mxPoint x="-50" y="210" as="sourcePoint" />
            <mxPoint x="30" y="210" as="targetPoint" />
          </mxGeometry>
        </mxCell>
        <mxCell id="ZFgXIYBRlFsBKdHk3r_l-51" value="" style="endArrow=classic;html=1;rounded=0;exitX=1;exitY=0.5;exitDx=0;exitDy=0;entryX=0;entryY=0.5;entryDx=0;entryDy=0;" edge="1" parent="1" source="7" target="ZFgXIYBRlFsBKdHk3r_l-46">
          <mxGeometry width="50" height="50" relative="1" as="geometry">
            <mxPoint x="110" y="410" as="sourcePoint" />
            <mxPoint x="160" y="360" as="targetPoint" />
          </mxGeometry>
        </mxCell>
        <mxCell id="ZFgXIYBRlFsBKdHk3r_l-52" value="" style="endArrow=classic;html=1;rounded=0;exitX=1;exitY=0.5;exitDx=0;exitDy=0;entryX=0;entryY=0.5;entryDx=0;entryDy=0;" edge="1" parent="1">
          <mxGeometry width="50" height="50" relative="1" as="geometry">
            <mxPoint x="360" y="220" as="sourcePoint" />
            <mxPoint x="440" y="220" as="targetPoint" />
          </mxGeometry>
        </mxCell>
        <mxCell id="ZFgXIYBRlFsBKdHk3r_l-53" value="" style="endArrow=classic;html=1;rounded=0;exitX=1;exitY=0.5;exitDx=0;exitDy=0;entryX=0;entryY=0.5;entryDx=0;entryDy=0;" edge="1" parent="1">
          <mxGeometry width="50" height="50" relative="1" as="geometry">
            <mxPoint x="360" y="260" as="sourcePoint" />
            <mxPoint x="440" y="260" as="targetPoint" />
          </mxGeometry>
        </mxCell>
        <mxCell id="ZFgXIYBRlFsBKdHk3r_l-54" value="" style="endArrow=classic;html=1;rounded=0;exitX=1;exitY=0.5;exitDx=0;exitDy=0;entryX=0;entryY=0.5;entryDx=0;entryDy=0;" edge="1" parent="1">
          <mxGeometry width="50" height="50" relative="1" as="geometry">
            <mxPoint x="360" y="300" as="sourcePoint" />
            <mxPoint x="440" y="300" as="targetPoint" />
          </mxGeometry>
        </mxCell>
        <mxCell id="ZFgXIYBRlFsBKdHk3r_l-58" value="ЧПУ" style="swimlane;whiteSpace=wrap" vertex="1" parent="1">
          <mxGeometry x="410" y="-90" width="270" height="180" as="geometry" />
        </mxCell>
        <mxCell id="ZFgXIYBRlFsBKdHk3r_l-60" value="ЧПУ" style="swimlane;whiteSpace=wrap;startSize=23;" vertex="1" parent="1">
          <mxGeometry x="710" y="-90" width="270" height="180" as="geometry" />
        </mxCell>
      </root>
    </mxGraphModel>
  </diagram>
</mxfile>
